<?xml version="1.0" encoding="UTF-8"?>
<svg id="_レイヤー_2" data-name="レイヤー 2" xmlns="http://www.w3.org/2000/svg" xmlns:xlink="http://www.w3.org/1999/xlink" viewBox="0 0 330.43 57.38">
  <defs>
    <style>
      .cls-1 {
        fill: url(#_名称未設定グラデーション_10);
      }
    </style>
    <linearGradient id="_名称未設定グラデーション_10" data-name="名称未設定グラデーション 10" x1="0" y1="28.69" x2="330.43" y2="28.69" gradientUnits="userSpaceOnUse">
      <stop offset="0" stop-color="#3aa698"/>
      <stop offset="1" stop-color="#6aadc6"/>
    </linearGradient>
  </defs>
  <g id="_レイヤー_1-2" data-name="レイヤー 1">
    <path class="cls-1" d="M96,56.23c-1.06,0-1.94-.36-2.66-1.08s-1.08-1.61-1.08-2.66V3.74c0-1.1.36-2,1.08-2.7.72-.7,1.61-1.04,2.66-1.04,1.44,0,2.54.67,3.31,2.02l22.54,45.14h-2.3L141.5,2.02c.77-1.34,1.87-2.02,3.31-2.02,1.06,0,1.94.35,2.66,1.04.72.7,1.08,1.6,1.08,2.7v48.74c0,1.06-.37,1.94-1.12,2.66-.75.72-1.62,1.08-2.63,1.08s-1.94-.36-2.66-1.08c-.72-.72-1.08-1.61-1.08-2.66V14.11l1.44-.36-18.86,38.45c-.82,1.25-1.9,1.87-3.24,1.87-1.58,0-2.74-.74-3.46-2.23l-18.65-37.37,1.44-.36v38.38c0,1.06-.36,1.94-1.08,2.66-.72.72-1.61,1.08-2.66,1.08ZM185.86,56.52c-3.5,0-6.65-.88-9.43-2.63-2.78-1.75-4.98-4.13-6.59-7.13-1.61-3-2.41-6.4-2.41-10.19s.88-7.2,2.63-10.22c1.75-3.02,4.13-5.41,7.13-7.16,3-1.75,6.37-2.63,10.12-2.63s7.1.88,10.08,2.63c2.98,1.75,5.34,4.14,7.09,7.16,1.75,3.02,2.63,6.43,2.63,10.22h-2.81c0,3.79-.8,7.19-2.41,10.19-1.61,3-3.8,5.38-6.59,7.13-2.78,1.75-5.93,2.63-9.43,2.63ZM187.3,50.04c2.45,0,4.63-.59,6.55-1.76,1.92-1.18,3.43-2.78,4.54-4.82,1.1-2.04,1.66-4.33,1.66-6.88s-.55-4.91-1.66-6.95c-1.1-2.04-2.62-3.65-4.54-4.82-1.92-1.18-4.1-1.76-6.55-1.76s-4.57.59-6.52,1.76c-1.94,1.18-3.48,2.78-4.61,4.82-1.13,2.04-1.69,4.36-1.69,6.95s.56,4.84,1.69,6.88c1.13,2.04,2.66,3.65,4.61,4.82,1.94,1.18,4.12,1.76,6.52,1.76ZM203.42,56.3c-1.06,0-1.93-.35-2.63-1.04-.7-.7-1.04-1.57-1.04-2.63v-11.02l1.37-7.63,5.98,2.59v16.06c0,1.06-.35,1.93-1.04,2.63-.7.7-1.57,1.04-2.63,1.04ZM229.63,10.44c-1.3,0-2.41-.47-3.35-1.4s-1.4-2.05-1.4-3.35.47-2.41,1.4-3.35,2.05-1.4,3.35-1.4,2.41.47,3.35,1.4c.94.94,1.4,2.05,1.4,3.35s-.47,2.41-1.4,3.35c-.94.94-2.05,1.4-3.35,1.4ZM229.63,56.23c-1.06,0-1.93-.35-2.63-1.04-.7-.7-1.04-1.57-1.04-2.63V20.52c0-1.1.35-1.99,1.04-2.66.7-.67,1.57-1.01,2.63-1.01s1.99.34,2.66,1.01c.67.67,1.01,1.56,1.01,2.66v32.04c0,1.06-.34,1.93-1.01,2.63-.67.7-1.56,1.04-2.66,1.04ZM278.45,57.38c-4.61,0-8.69-.85-12.24-2.56-3.55-1.7-6.32-4.07-8.32-7.09-1.99-3.02-2.99-6.48-2.99-10.37V3.74c0-1.1.36-2,1.08-2.7.72-.7,1.61-1.04,2.66-1.04s2,.35,2.7,1.04c.7.7,1.04,1.6,1.04,2.7v33.62c0,2.59.68,4.88,2.05,6.88,1.37,1.99,3.26,3.55,5.69,4.68,2.42,1.13,5.19,1.69,8.32,1.69s5.7-.56,8.03-1.69c2.33-1.13,4.15-2.69,5.47-4.68,1.32-1.99,1.98-4.28,1.98-6.88V3.74c0-1.1.36-2,1.08-2.7.72-.7,1.61-1.04,2.66-1.04s1.99.35,2.66,1.04c.67.7,1.01,1.6,1.01,2.7v33.62c0,3.89-.97,7.34-2.92,10.37-1.94,3.02-4.64,5.39-8.1,7.09-3.46,1.7-7.42,2.56-11.88,2.56ZM326.69,56.23c-1.06,0-1.94-.36-2.66-1.08s-1.08-1.61-1.08-2.66V3.74c0-1.1.36-2,1.08-2.7.72-.7,1.61-1.04,2.66-1.04s2,.35,2.7,1.04c.7.7,1.04,1.6,1.04,2.7v48.74c0,1.06-.35,1.94-1.04,2.66-.7.72-1.6,1.08-2.7,1.08ZM71.67,47.43c-6.73-14.77-15.62-29.09-22.57-43.81-1.33-2.12-3.39-3.05-5.69-2.3-.51.17-1.44.44-1.83,1.17-3.67,6.85-7.53,14.02-10.43,21.34l4.49,8.64s.55.89.55,1.38c0,.92-.66,1.67-1.48,1.67-.52,0-.98-.31-1.24-.77,0,0,0,0,0-.01-1.7-3.13-8.04-16.24-10.12-19.11-4.66-2.54-6.53,1.7-8.61,5.59C9.83,30.42,5.59,40.11.51,49.2c-1.42,3.56.28,6.51,3.36,7.79,0,0,65.02.08,65.02.08,4.54-1.24,5.09-5.68,2.78-9.63Z"/>
  </g>
</svg>