<?xml version="1.0" encoding="UTF-8"?>
<svg id="_レイヤー_2" data-name="レイヤー 2" xmlns="http://www.w3.org/2000/svg" xmlns:xlink="http://www.w3.org/1999/xlink" viewBox="0 0 73 56">
  <defs>
    <style>
      .cls-1 {
        fill: url(#_名称未設定グラデーション_10);
      }
    </style>
    <linearGradient id="_名称未設定グラデーション_10" data-name="名称未設定グラデーション 10" x1="0" y1="28" x2="73" y2="28" gradientUnits="userSpaceOnUse">
      <stop offset="0" stop-color="#3aa698"/>
      <stop offset="1" stop-color="#6aadc6"/>
    </linearGradient>
  </defs>
  <g id="_レイヤー_1-2" data-name="レイヤー 1">
    <path class="cls-1" d="M71.67,46.37c-6.73-14.77-15.62-29.09-22.57-43.81-1.33-2.12-3.39-3.05-5.69-2.3-.51.17-1.44.44-1.83,1.17-3.67,6.85-7.53,14.02-10.43,21.34l4.49,8.64s.55.89.55,1.38c0,.92-.66,1.67-1.48,1.67-.52,0-.98-.31-1.24-.77,0,0,0,0,0-.01-1.7-3.13-8.04-16.24-10.12-19.11-4.66-2.54-6.53,1.7-8.61,5.59C9.83,29.36,5.59,39.05.51,48.14c-1.42,3.56.28,6.51,3.36,7.79,0,0,65.02.08,65.02.08,4.54-1.24,5.09-5.68,2.78-9.63Z"/>
  </g>
</svg>